<?xml version="1.0" encoding="utf-8" ?>
<svg baseProfile="full" height="512px" version="1.1" width="512px" xmlns="http://www.w3.org/2000/svg" xmlns:ev="http://www.w3.org/2001/xml-events" xmlns:xlink="http://www.w3.org/1999/xlink"><defs /><circle cx="30" cy="326" fill="#ffffff" r="50" /><circle cx="430" cy="319" fill="#ff00ff" r="47" /><rect fill="#ff00ff" height="42" width="77" x="177" y="422" /><rect fill="#ffffff" height="55" width="58" x="273" y="205" /><line stroke="#ff00ff" stroke-width="2" x1="134" x2="338" y1="103" y2="273" /><rect fill="#ffffff" height="68" width="68" x="340" y="381" /><circle cx="30" cy="70" fill="#000000" r="48" /><rect fill="#000000" height="67" width="60" x="15" y="372" /><circle cx="34" cy="68" fill="#ff00ff" r="40" /><rect fill="#ff00ff" height="22" width="40" x="89" y="319" /><circle cx="428" cy="51" fill="#000000" r="24" /><line stroke="#ff00ff" stroke-width="2" x1="426" x2="48" y1="50" y2="477" /><rect fill="#ff00ff" height="44" width="75" x="446" y="324" /><line stroke="#ff00ff" stroke-width="2" x1="479" x2="430" y1="62" y2="73" /><line stroke="#ff00ff" stroke-width="2" x1="336" x2="153" y1="402" y2="2" /><rect fill="#000000" height="41" width="31" x="221" y="369" /><line stroke="#ffffff" stroke-width="2" x1="475" x2="74" y1="303" y2="137" /><line stroke="#000000" stroke-width="2" x1="303" x2="486" y1="452" y2="122" /><line stroke="#ff00ff" stroke-width="2" x1="328" x2="444" y1="298" y2="204" /><line stroke="#ff00ff" stroke-width="2" x1="442" x2="405" y1="3" y2="507" /></svg>